<svg width="287" height="308" viewBox="0 0 287 308" fill="none" xmlns="http://www.w3.org/2000/svg">
<rect width="287" height="308" fill="url(#paint0_linear_46_187)"/>
<mask id="mask0_46_187" style="mask-type:alpha" maskUnits="userSpaceOnUse" x="0" y="0" width="287" height="308">
<rect width="287" height="308" fill="url(#paint1_linear_46_187)"/>
</mask>
<g mask="url(#mask0_46_187)">
<g clip-path="url(#clip0_46_187)">
<path d="M329.67 240.466L325.201 235.931L329.736 231.462L325.266 226.926L329.802 222.457L325.332 217.922L307.191 235.8L289.313 217.659L284.778 222.128L289.248 226.663L284.712 231.132L289.182 235.667L284.647 240.137L289.116 244.672L284.58 249.142L280.111 244.607L275.576 249.076L271.106 244.541L266.571 249.01L262.102 244.475L257.567 248.944L275.445 267.085L257.303 284.963L261.773 289.498L266.308 285.029L270.777 289.564L275.312 285.095L279.781 289.63L284.316 285.161L288.786 289.696L284.251 294.166L288.721 298.701L284.185 303.17L288.655 307.705L284.12 312.174L288.589 316.709L306.73 298.832L324.608 316.973L329.143 312.504L324.674 307.969L329.209 303.499L324.739 298.964L329.275 294.495L324.805 289.96L329.341 285.49L333.81 290.025L338.346 285.556L342.815 290.091L347.35 285.622L351.819 290.157L356.354 285.688L338.477 267.546L356.618 249.669L352.148 245.133L347.613 249.603L343.144 245.068L338.609 249.537L334.14 245.002L329.605 249.471L325.135 244.935L329.67 240.466ZM279.914 271.62L284.449 267.151L279.98 262.616L289.05 253.678L293.519 258.213L288.984 262.682L293.453 267.217L288.918 271.686L293.387 276.221L288.852 280.691L279.914 271.62ZM311.529 258.344L315.999 262.879L311.464 267.349L315.933 271.884L311.397 276.354L306.928 271.819L302.393 276.288L297.923 271.752L302.458 267.283L297.988 262.748L302.524 258.278L306.994 262.813L311.529 258.344ZM311.265 294.363L306.796 289.827L302.261 294.297L293.322 285.226L297.857 280.757L302.327 285.292L306.862 280.823L311.331 285.358L315.866 280.889L320.335 285.424L311.265 294.363ZM334.007 263.011L329.472 267.48L333.941 272.016L324.871 280.954L320.402 276.419L324.937 271.95L320.468 267.415L325.003 262.945L320.534 258.41L325.069 253.941L334.007 263.011ZM316.064 253.874L311.594 249.339L307.059 253.809L302.59 249.273L298.055 253.743L293.586 249.208L302.656 240.269L307.125 244.804L311.66 240.335L320.599 249.405L316.064 253.874Z" fill="#A2B8FA"/>
<path d="M275.246 294.099L270.711 298.568L275.181 303.104L279.716 298.635L275.246 294.099Z" fill="#A2B8FA"/>
<path d="M275.708 231.066L271.172 235.536L275.641 240.071L280.177 235.601L275.708 231.066Z" fill="#A2B8FA"/>
</g>
<g clip-path="url(#clip1_46_187)">
<path d="M266.102 303.11L261.633 298.575L266.168 294.106L261.698 289.571L266.234 285.102L261.764 280.567L243.623 298.444L225.745 280.303L221.21 284.772L225.68 289.308L221.144 293.777L225.614 298.312L221.079 302.781L225.548 307.316L221.012 311.786L216.543 307.251L212.008 311.72L207.538 307.185L203.003 311.654L198.534 307.119L193.999 311.589L211.877 329.73L193.735 347.607L198.205 352.143L202.74 347.673L207.209 352.208L211.744 347.739L216.213 352.274L220.748 347.805L225.218 352.341L220.683 356.81L225.153 361.345L220.618 365.815L225.087 370.35L220.552 374.819L225.021 379.354L243.162 361.476L261.04 379.617L265.575 375.148L261.106 370.613L265.641 366.144L261.172 361.609L265.707 357.14L261.237 352.604L265.773 348.134L270.242 352.67L274.778 348.2L279.247 352.735L283.782 348.266L288.251 352.801L292.786 348.332L274.909 330.191L293.05 312.313L288.581 307.778L284.045 312.247L279.576 307.712L275.041 312.181L270.572 307.646L266.037 312.116L261.567 307.58L266.102 303.11ZM216.346 334.265L220.881 329.796L216.412 325.261L225.482 316.322L229.951 320.857L225.416 325.326L229.885 329.862L225.35 334.331L229.819 338.866L225.284 343.335L216.346 334.265ZM247.961 320.988L252.431 325.524L247.896 329.993L252.365 334.528L247.829 338.998L243.36 334.463L238.825 338.932L234.355 334.397L238.89 329.927L234.42 325.392L238.956 320.922L243.426 325.457L247.961 320.988ZM247.697 357.007L243.228 352.472L238.693 356.941L229.754 347.871L234.289 343.402L238.759 347.937L243.294 343.468L247.763 348.003L252.298 343.533L256.767 348.069L247.697 357.007ZM270.439 325.656L265.904 330.125L270.373 334.66L261.303 343.599L256.834 339.063L261.369 334.594L256.9 330.059L261.435 325.59L256.966 321.055L261.501 316.586L270.439 325.656ZM252.496 316.519L248.027 311.984L243.491 316.453L239.022 311.918L234.487 316.387L230.018 311.852L239.088 302.914L243.557 307.449L248.092 302.979L257.031 312.05L252.496 316.519Z" fill="#A2B8FA"/>
<path d="M275.172 294.172L270.637 298.641L275.107 303.177L279.642 298.708L275.172 294.172Z" fill="#A2B8FA"/>
<path d="M212.14 293.711L207.604 298.181L212.073 302.716L216.609 298.246L212.14 293.711Z" fill="#A2B8FA"/>
</g>
<g clip-path="url(#clip2_46_187)">
<path d="M330.593 114.253L326.123 109.718L330.659 105.249L326.189 100.714L330.724 96.2443L326.255 91.7092L308.114 109.587L290.236 91.4457L285.701 95.915L290.17 100.45L285.635 104.919L290.105 109.454L285.569 113.924L290.039 118.459L285.503 122.929L281.034 118.394L276.499 122.863L272.029 118.328L267.494 122.797L263.025 118.262L258.49 122.731L276.368 140.872L258.226 158.75L262.696 163.285L267.231 158.816L271.7 163.351L276.235 158.882L280.704 163.417L285.239 158.948L289.709 163.484L285.174 167.953L289.644 172.488L285.108 176.957L289.578 181.492L285.043 185.961L289.512 190.497L307.653 172.619L325.531 190.76L330.066 186.291L325.597 181.756L330.132 177.286L325.662 172.751L330.198 168.282L325.728 163.747L330.264 159.277L334.733 163.812L339.268 159.343L343.738 163.878L348.273 159.409L352.742 163.944L357.277 159.475L339.399 141.333L357.541 123.456L353.071 118.921L348.536 123.39L344.067 118.855L339.532 123.324L335.063 118.789L330.528 123.258L326.058 118.722L330.593 114.253ZM280.837 145.407L285.372 140.938L280.903 136.403L289.973 127.465L294.442 132L289.907 136.469L294.376 141.004L289.841 145.473L294.31 150.008L289.775 154.478L280.837 145.407ZM312.452 132.131L316.922 136.667L312.386 141.136L316.856 145.671L312.32 150.141L307.851 145.606L303.315 150.075L298.845 145.539L303.381 141.07L298.911 136.535L303.447 132.065L307.916 136.6L312.452 132.131ZM312.188 168.15L307.719 163.615L303.184 168.084L294.245 159.014L298.78 154.544L303.25 159.079L307.785 154.61L312.254 159.145L316.789 154.676L321.258 159.211L312.188 168.15ZM334.93 136.798L330.395 141.268L334.864 145.803L325.794 154.741L321.325 150.206L325.86 145.737L321.391 141.202L325.926 136.732L321.457 132.197L325.992 127.728L334.93 136.798ZM316.987 127.661L312.517 123.126L307.982 127.596L303.513 123.061L298.978 127.53L294.509 122.995L303.579 114.056L308.048 118.591L312.583 114.122L321.522 123.192L316.987 127.661Z" fill="#A2B8FA"/>
<path d="M276.169 167.886L271.634 172.355L276.104 176.891L280.639 172.422L276.169 167.886Z" fill="#A2B8FA"/>
<path d="M276.631 104.853L272.095 109.323L276.564 113.858L281.1 109.388L276.631 104.853Z" fill="#A2B8FA"/>
</g>
<g clip-path="url(#clip3_46_187)">
<path d="M267.948 50.6847L263.479 46.1496L268.014 41.6803L263.545 37.1452L268.08 32.676L263.61 28.1409L245.469 46.0186L227.592 27.8774L223.056 32.3466L227.526 36.8817L222.991 41.351L227.46 45.8861L222.925 50.3553L227.394 54.8904L222.858 59.3604L218.389 54.8253L213.854 59.2945L209.385 54.7594L204.849 59.2287L200.38 54.6936L195.845 59.1628L213.723 77.304L195.582 95.1817L200.051 99.7168L204.586 95.2476L209.055 99.7827L213.59 95.3134L218.06 99.8485L222.595 95.3793L227.065 99.9152L222.53 104.384L226.999 108.92L222.464 113.389L226.933 117.924L222.398 122.393L226.867 126.928L245.008 109.051L262.886 127.192L267.421 122.722L262.952 118.187L267.487 113.718L263.018 109.183L267.553 104.714L263.084 100.179L267.619 95.7087L272.089 100.244L276.624 95.7745L281.093 100.31L285.628 95.8404L290.097 100.375L294.632 95.9063L276.755 77.7651L294.896 59.8874L290.427 55.3522L285.892 59.8215L281.422 55.2864L276.887 59.7556L272.418 55.2205L267.883 59.6898L263.413 55.1539L267.948 50.6847ZM218.192 81.8391L222.727 77.3699L218.258 72.8348L227.328 63.8963L231.797 68.4314L227.262 72.9006L231.731 77.4357L227.196 81.905L231.666 86.4401L227.131 90.9093L218.192 81.8391ZM249.807 68.5624L254.277 73.0982L249.742 77.5675L254.211 82.1026L249.675 86.5726L245.206 82.0375L240.671 86.5067L236.201 81.9708L240.736 77.5016L236.267 72.9665L240.802 68.4965L245.272 73.0316L249.807 68.5624ZM249.543 104.581L245.074 100.046L240.539 104.515L231.6 95.4452L236.136 90.9759L240.605 95.5111L245.14 91.0418L249.609 95.5769L254.144 91.1077L258.614 95.6428L249.543 104.581ZM272.285 73.23L267.75 77.6992L272.22 82.2343L263.149 91.1728L258.68 86.6377L263.215 82.1684L258.746 77.6333L263.281 73.1641L258.812 68.629L263.347 64.1598L272.285 73.23ZM254.342 64.0931L249.873 59.558L245.338 64.0273L240.868 59.4922L236.333 63.9614L231.864 59.4263L240.934 50.4878L245.403 55.0229L249.939 50.5537L258.877 59.6239L254.342 64.0931Z" fill="#A2B8FA"/>
<path d="M277.018 41.7461L272.483 46.2153L276.953 50.7512L281.488 46.282L277.018 41.7461Z" fill="#A2B8FA"/>
<path d="M276.558 104.779L272.022 109.249L276.491 113.784L281.027 109.314L276.558 104.779Z" fill="#A2B8FA"/>
<path d="M213.524 104.318L208.989 108.787L213.459 113.323L217.994 108.854L213.524 104.318Z" fill="#A2B8FA"/>
<path d="M213.986 41.2849L209.45 45.7549L213.92 50.29L218.455 45.82L213.986 41.2849Z" fill="#A2B8FA"/>
</g>
<g clip-path="url(#clip4_46_187)">
<path d="M267.025 176.898L262.556 172.362L267.091 167.893L262.621 163.358L267.156 158.889L262.687 154.354L244.546 172.231L226.668 154.09L222.133 158.56L226.602 163.095L222.067 167.564L226.537 172.099L222.002 176.568L226.471 181.103L221.935 185.573L217.466 181.038L212.931 185.507L208.461 180.972L203.926 185.442L199.457 180.906L194.922 185.376L212.8 203.517L194.658 221.395L199.128 225.93L203.663 221.46L208.132 225.996L212.667 221.526L217.136 226.061L221.671 221.592L226.141 226.128L221.606 230.597L226.076 235.132L221.54 239.602L226.01 244.137L221.475 248.606L225.944 253.141L244.085 235.263L261.963 253.405L266.498 248.935L262.029 244.4L266.564 239.931L262.094 235.396L266.63 230.927L262.16 226.392L266.696 221.922L271.165 226.457L275.701 221.987L280.17 226.523L284.705 222.053L289.174 226.588L293.709 222.119L275.831 203.978L293.973 186.1L289.503 181.565L284.968 186.034L280.499 181.499L275.964 185.969L271.495 181.433L266.96 185.903L262.49 181.367L267.025 176.898ZM217.269 208.052L221.804 203.583L217.335 199.048L226.405 190.109L230.874 194.644L226.339 199.114L230.808 203.649L226.273 208.118L230.742 212.653L226.207 217.122L217.269 208.052ZM248.884 194.775L253.354 199.311L248.818 203.78L253.288 208.315L248.752 212.785L244.283 208.25L239.747 212.72L235.277 208.184L239.813 203.714L235.343 199.179L239.879 194.709L244.348 199.244L248.884 194.775ZM248.62 230.794L244.151 226.259L239.616 230.728L230.677 221.658L235.212 217.189L239.682 221.724L244.217 217.255L248.686 221.79L253.221 217.321L257.69 221.856L248.62 230.794ZM271.362 199.443L266.827 203.912L271.296 208.447L262.226 217.386L257.757 212.851L262.292 208.381L257.823 203.846L262.358 199.377L257.889 194.842L262.424 190.373L271.362 199.443ZM253.419 190.306L248.949 185.771L244.414 190.24L239.945 185.705L235.41 190.174L230.941 185.639L240.011 176.701L244.48 181.236L249.015 176.767L257.954 185.837L253.419 190.306Z" fill="#A2B8FA"/>
<path d="M276.095 167.959L271.56 172.428L276.03 176.964L280.565 172.495L276.095 167.959Z" fill="#A2B8FA"/>
<path d="M275.635 230.992L271.099 235.462L275.568 239.997L280.104 235.527L275.635 230.992Z" fill="#A2B8FA"/>
<path d="M212.601 230.531L208.066 235L212.536 239.536L217.071 235.067L212.601 230.531Z" fill="#A2B8FA"/>
<path d="M213.063 167.498L208.527 171.968L212.996 176.503L217.532 172.033L213.063 167.498Z" fill="#A2B8FA"/>
</g>
<g clip-path="url(#clip5_46_187)">
<path d="M204.38 113.33L199.911 108.795L204.446 104.325L199.977 99.7902L204.512 95.321L200.043 90.7859L181.901 108.664L164.024 90.5224L159.489 94.9916L163.958 99.5268L159.423 103.996L163.892 108.531L159.357 113L163.826 117.535L159.29 122.005L154.821 117.47L150.286 121.94L145.817 117.404L141.281 121.874L136.812 117.339L132.277 121.808L150.155 139.949L132.014 157.827L136.483 162.362L141.018 157.893L145.487 162.428L150.022 157.958L154.492 162.494L159.027 158.024L163.497 162.56L158.962 167.029L163.431 171.565L158.896 176.034L163.365 180.569L158.83 185.038L163.299 189.573L181.44 171.696L199.318 189.837L203.853 185.367L199.384 180.832L203.919 176.363L199.45 171.828L203.985 167.359L199.516 162.824L204.051 158.354L208.521 162.889L213.056 158.42L217.525 162.955L222.06 158.485L226.529 163.021L231.064 158.551L213.187 140.41L231.328 122.532L226.859 117.997L222.324 122.467L217.854 117.931L213.319 122.401L208.85 117.866L204.315 122.335L199.845 117.799L204.38 113.33ZM154.624 144.484L159.159 140.015L154.69 135.48L163.76 126.541L168.229 131.076L163.694 135.546L168.164 140.081L163.628 144.55L168.098 149.085L163.563 153.554L154.624 144.484ZM186.239 131.207L190.709 135.743L186.174 140.212L190.643 144.748L186.107 149.218L181.638 144.682L177.103 149.152L172.633 144.616L177.168 140.147L172.699 135.612L177.234 131.142L181.704 135.677L186.239 131.207ZM185.975 167.226L181.506 162.691L176.971 167.16L168.033 158.09L172.568 153.621L177.037 158.156L181.572 153.687L186.041 158.222L190.576 153.753L195.046 158.288L185.975 167.226ZM208.718 135.875L204.182 140.344L208.652 144.879L199.581 153.818L195.112 149.283L199.647 144.813L195.178 140.278L199.713 135.809L195.244 131.274L199.779 126.805L208.718 135.875ZM190.774 126.738L186.305 122.203L181.77 126.672L177.3 122.137L172.765 126.606L168.296 122.071L177.366 113.133L181.835 117.668L186.371 113.199L195.309 122.269L190.774 126.738Z" fill="#A2B8FA"/>
<path d="M213.45 104.391L208.915 108.86L213.385 113.396L217.92 108.927L213.45 104.391Z" fill="#A2B8FA"/>
<path d="M212.99 167.424L208.454 171.894L212.923 176.429L217.459 171.959L212.99 167.424Z" fill="#A2B8FA"/>
<path d="M149.956 166.963L145.421 171.432L149.891 175.968L154.426 171.499L149.956 166.963Z" fill="#A2B8FA"/>
<path d="M150.418 103.93L145.882 108.4L150.352 112.935L154.888 108.465L150.418 103.93Z" fill="#A2B8FA"/>
</g>
<g clip-path="url(#clip6_46_187)">
<path d="M203.457 239.542L198.988 235.007L203.523 230.538L199.053 226.003L203.589 221.533L199.119 216.998L180.978 234.876L163.1 216.735L158.565 221.204L163.035 225.739L158.499 230.208L162.969 234.743L158.434 239.213L162.903 243.748L158.367 248.218L153.898 243.683L149.363 248.152L144.893 243.617L140.358 248.086L135.889 243.551L131.354 248.02L149.232 266.161L131.09 284.039L135.56 288.574L140.095 284.105L144.564 288.64L149.099 284.171L153.568 288.706L158.103 284.237L162.573 288.773L158.038 293.242L162.508 297.777L157.972 302.246L162.442 306.781L157.907 311.251L162.376 315.786L180.517 297.908L198.395 316.049L202.93 311.58L198.461 307.045L202.996 302.576L198.526 298.04L203.062 293.571L198.592 289.036L203.128 284.566L207.597 289.101L212.133 284.632L216.602 289.167L221.137 284.698L225.606 289.233L230.141 284.764L212.264 266.622L230.405 248.745L225.935 244.21L221.4 248.679L216.931 244.144L212.396 248.613L207.927 244.078L203.392 248.547L198.922 244.011L203.457 239.542ZM153.701 270.697L158.236 266.227L153.767 261.692L162.837 252.754L167.306 257.289L162.771 261.758L167.24 266.293L162.705 270.762L167.174 275.298L162.639 279.767L153.701 270.697ZM185.316 257.42L189.786 261.956L185.25 266.425L189.72 270.96L185.184 275.43L180.715 270.895L176.18 275.364L171.71 270.828L176.245 266.359L171.775 261.824L176.311 257.354L180.78 261.889L185.316 257.42ZM185.052 293.439L180.583 288.904L176.048 293.373L167.109 284.303L171.644 279.833L176.114 284.368L180.649 279.899L185.118 284.434L189.653 279.965L194.122 284.5L185.052 293.439ZM207.794 262.087L203.259 266.557L207.728 271.092L198.658 280.03L194.189 275.495L198.724 271.026L194.255 266.491L198.79 262.022L194.321 257.486L198.856 253.017L207.794 262.087ZM189.851 252.951L185.381 248.415L180.846 252.885L176.377 248.35L171.842 252.819L167.373 248.284L176.443 239.345L180.912 243.88L185.447 239.411L194.386 248.481L189.851 252.951Z" fill="#A2B8FA"/>
<path d="M212.527 230.604L207.992 235.073L212.462 239.609L216.997 235.139L212.527 230.604Z" fill="#A2B8FA"/>
<path d="M212.067 293.636L207.531 298.106L212 302.642L216.536 298.172L212.067 293.636Z" fill="#A2B8FA"/>
<path d="M149.033 293.175L144.498 297.645L148.968 302.18L153.503 297.711L149.033 293.175Z" fill="#A2B8FA"/>
<path d="M149.495 230.142L144.959 234.612L149.428 239.147L153.964 234.677L149.495 230.142Z" fill="#A2B8FA"/>
</g>
<g clip-path="url(#clip7_46_187)">
<path d="M140.812 175.974L136.343 171.439L140.878 166.97L136.409 162.435L140.944 157.966L136.475 153.43L118.333 171.308L100.456 153.167L95.9205 157.636L100.39 162.171L95.8547 166.641L100.324 171.176L95.7888 175.645L100.258 180.18L95.7222 184.65L91.2529 180.115L86.7178 184.584L82.2486 180.049L77.7135 184.518L73.2443 179.983L68.7091 184.452L86.5869 202.594L68.4457 220.471L72.9149 225.006L77.45 220.537L81.9193 225.072L86.4544 220.603L90.9236 225.138L95.4587 220.669L99.9287 225.205L95.3936 229.674L99.8628 234.209L95.3277 238.678L99.797 243.213L95.2619 247.683L99.7311 252.218L117.872 234.34L135.75 252.481L140.285 248.012L135.816 243.477L140.351 239.008L135.882 234.473L140.417 230.003L135.948 225.468L140.483 220.998L144.953 225.533L149.488 221.064L153.957 225.599L158.492 221.13L162.961 225.665L167.497 221.196L149.619 203.055L167.76 185.177L163.291 180.642L158.756 185.111L154.286 180.576L149.751 185.045L145.282 180.51L140.747 184.979L136.277 180.443L140.812 175.974ZM91.0561 207.129L95.5912 202.659L91.122 198.124L100.192 189.186L104.661 193.721L100.126 198.19L104.596 202.725L100.06 207.195L104.53 211.73L99.9946 216.199L91.0561 207.129ZM122.671 193.852L127.141 198.388L122.606 202.857L127.075 207.392L122.539 211.862L118.07 207.327L113.535 211.796L109.065 207.26L113.6 202.791L109.131 198.256L113.667 193.786L118.136 198.321L122.671 193.852ZM122.407 229.871L117.938 225.336L113.403 229.805L104.465 220.735L109 216.265L113.469 220.801L118.004 216.331L122.473 220.866L127.008 216.397L131.478 220.932L122.407 229.871ZM145.15 198.52L140.614 202.989L145.084 207.524L136.013 216.462L131.544 211.927L136.079 207.458L131.61 202.923L136.145 198.454L131.676 193.919L136.211 189.449L145.15 198.52ZM127.206 189.383L122.737 184.848L118.202 189.317L113.732 184.782L109.197 189.251L104.728 184.716L113.798 175.777L118.267 180.312L122.803 175.843L131.741 184.913L127.206 189.383Z" fill="#A2B8FA"/>
<path d="M149.882 167.036L145.347 171.505L149.817 176.041L154.352 171.572L149.882 167.036Z" fill="#A2B8FA"/>
<path d="M149.422 230.069L144.886 234.539L149.355 239.074L153.891 234.604L149.422 230.069Z" fill="#A2B8FA"/>
<path d="M86.3885 229.607L81.8534 234.077L86.3234 238.613L90.8585 234.143L86.3885 229.607Z" fill="#A2B8FA"/>
<path d="M86.8503 166.574L82.3145 171.044L86.7837 175.58L91.3196 171.11L86.8503 166.574Z" fill="#A2B8FA"/>
</g>
<g clip-path="url(#clip8_46_187)">
<path d="M139.889 302.187L135.42 297.652L139.955 293.183L135.485 288.648L140.021 284.178L135.551 279.643L117.41 297.521L99.5324 279.38L94.9973 283.849L99.4666 288.384L94.9315 292.853L99.4007 297.389L94.8656 301.858L99.3348 306.393L94.799 310.863L90.3297 306.328L85.7946 310.797L81.3254 306.262L76.7903 310.731L72.321 306.196L67.7859 310.665L85.6636 328.806L67.5225 346.684L71.9917 351.219L76.5268 346.75L80.996 351.285L85.5312 346.816L90.0004 351.351L94.5355 346.882L99.0055 351.418L94.4704 355.887L98.9396 360.422L94.4045 364.891L98.8738 369.426L94.3386 373.896L98.8079 378.431L116.949 360.553L134.827 378.694L139.362 374.225L134.893 369.69L139.428 365.221L134.959 360.685L139.494 356.216L135.024 351.681L139.56 347.211L144.029 351.746L148.565 347.277L153.034 351.812L157.569 347.343L162.038 351.878L166.573 347.409L148.696 329.268L166.837 311.39L162.368 306.855L157.832 311.324L153.363 306.789L148.828 311.258L144.359 306.723L139.824 311.192L135.354 306.656L139.889 302.187ZM90.1329 333.342L94.668 328.872L90.1987 324.337L99.269 315.399L103.738 319.934L99.2031 324.403L103.672 328.938L99.1372 333.407L103.606 337.943L99.0714 342.412L90.1329 333.342ZM121.748 320.065L126.218 324.601L121.683 329.07L126.152 333.605L121.616 338.075L117.147 333.54L112.612 338.009L108.142 333.473L112.677 329.004L108.207 324.469L112.743 319.999L117.213 324.534L121.748 320.065ZM121.484 356.084L117.015 351.549L112.48 356.018L103.541 346.948L108.076 342.478L112.546 347.013L117.081 342.544L121.55 347.079L126.085 342.61L130.554 347.145L121.484 356.084ZM144.226 324.732L139.691 329.202L144.16 333.737L135.09 342.675L130.621 338.14L135.156 333.671L130.687 329.136L135.222 324.667L130.753 320.131L135.288 315.662L144.226 324.732ZM126.283 315.596L121.814 311.06L117.278 315.53L112.809 310.995L108.274 315.464L103.805 310.929L112.875 301.99L117.344 306.525L121.879 302.056L130.818 311.126L126.283 315.596Z" fill="#A2B8FA"/>
<path d="M148.959 293.249L144.424 297.718L148.894 302.254L153.429 297.784L148.959 293.249Z" fill="#A2B8FA"/>
<path d="M85.9271 292.787L81.3913 297.257L85.8605 301.792L90.3964 297.322L85.9271 292.787Z" fill="#A2B8FA"/>
</g>
<g clip-path="url(#clip9_46_187)">
<path d="M77.2444 238.619L72.7751 234.084L77.3102 229.615L72.841 225.08L77.3761 220.611L72.9069 216.075L54.7657 233.953L36.888 215.812L32.3529 220.281L36.8221 224.816L32.287 229.286L36.7562 233.821L32.2211 238.29L36.6904 242.825L32.1545 247.295L27.6853 242.76L23.1502 247.229L18.6809 242.694L14.1458 247.163L9.67656 242.628L5.14146 247.097L23.0192 265.239L4.87799 283.116L9.34723 287.651L13.8823 283.182L18.3516 287.717L22.8867 283.248L27.3559 287.783L31.891 283.314L36.361 287.85L31.8259 292.319L36.2952 296.854L31.76 301.323L36.2293 305.858L31.6942 310.328L36.1634 314.863L54.3046 296.985L72.1823 315.126L76.7174 310.657L72.2482 306.122L76.7833 301.653L72.314 297.118L76.8491 292.648L72.3799 288.113L76.9158 283.643L81.385 288.178L85.9201 283.709L90.3894 288.244L94.9245 283.775L99.3937 288.31L103.929 283.841L86.0511 265.7L104.192 247.822L99.723 243.287L95.1879 247.756L90.7187 243.221L86.1836 247.69L81.7144 243.155L77.1793 247.624L72.7093 243.088L77.2444 238.619ZM27.4884 269.774L32.0235 265.304L27.5543 260.769L36.6245 251.831L41.0937 256.366L36.5586 260.835L41.0279 265.37L36.4928 269.84L40.962 274.375L36.4269 278.844L27.4884 269.774ZM59.1032 256.497L63.5732 261.033L59.0381 265.502L63.5073 270.037L58.9714 274.507L54.5022 269.972L49.9671 274.441L45.4971 269.905L50.0322 265.436L45.563 260.901L50.0988 256.431L54.5681 260.966L59.1032 256.497ZM58.8397 292.516L54.3705 287.981L49.8354 292.45L40.8969 283.38L45.432 278.911L49.9012 283.446L54.4363 278.976L58.9056 283.511L63.4407 279.042L67.9099 283.577L58.8397 292.516ZM81.5819 261.165L77.0468 265.634L81.516 270.169L72.4458 279.107L67.9765 274.572L72.5117 270.103L68.0424 265.568L72.5775 261.099L68.1083 256.564L72.6434 252.094L81.5819 261.165ZM63.6383 252.028L59.169 247.493L54.6339 251.962L50.1647 247.427L45.6296 251.896L41.1604 247.361L50.2306 238.422L54.6998 242.957L59.2349 238.488L68.1734 247.558L63.6383 252.028Z" fill="#A2B8FA"/>
<path d="M86.3146 229.681L81.7795 234.15L86.2495 238.686L90.7846 234.217L86.3146 229.681Z" fill="#A2B8FA"/>
<path d="M85.8543 292.714L81.3184 297.184L85.7876 301.719L90.3235 297.249L85.8543 292.714Z" fill="#A2B8FA"/>
<path d="M22.8208 292.252L18.2857 296.722L22.7557 301.258L27.2908 296.788L22.8208 292.252Z" fill="#A2B8FA"/>
<path d="M23.2826 229.219L18.7468 233.689L23.216 238.225L27.7519 233.755L23.2826 229.219Z" fill="#A2B8FA"/>
</g>
</g>
<rect y="190" width="287" height="118" fill="url(#paint2_linear_46_187)" fill-opacity="0.8"/>
<defs>
<linearGradient id="paint0_linear_46_187" x1="232" y1="308" x2="53.5" y2="-80.5" gradientUnits="userSpaceOnUse">
<stop stop-color="#44B0EB"/>
<stop offset="1" stop-color="#F79BFF"/>
</linearGradient>
<linearGradient id="paint1_linear_46_187" x1="232" y1="308" x2="53.5" y2="-80.5" gradientUnits="userSpaceOnUse">
<stop stop-color="#44B0EB"/>
<stop offset="1" stop-color="#F79BFF"/>
</linearGradient>
<linearGradient id="paint2_linear_46_187" x1="143.5" y1="308" x2="143" y2="190" gradientUnits="userSpaceOnUse">
<stop stop-color="#4D378D"/>
<stop offset="1" stop-color="#4D378D" stop-opacity="0"/>
</linearGradient>
<clipPath id="clip0_46_187">
<rect width="95.5113" height="95.5113" fill="white" transform="translate(239.426 266.822) rotate(-44.5809)"/>
</clipPath>
<clipPath id="clip1_46_187">
<rect width="95.5113" height="95.5113" fill="white" transform="translate(175.858 329.466) rotate(-44.5809)"/>
</clipPath>
<clipPath id="clip2_46_187">
<rect width="95.5113" height="95.5113" fill="white" transform="translate(240.349 140.609) rotate(-44.5809)"/>
</clipPath>
<clipPath id="clip3_46_187">
<rect width="95.5113" height="95.5113" fill="white" transform="translate(177.704 77.0405) rotate(-44.5809)"/>
</clipPath>
<clipPath id="clip4_46_187">
<rect width="95.5113" height="95.5113" fill="white" transform="translate(176.781 203.253) rotate(-44.5809)"/>
</clipPath>
<clipPath id="clip5_46_187">
<rect width="95.5113" height="95.5113" fill="white" transform="translate(114.136 139.686) rotate(-44.5809)"/>
</clipPath>
<clipPath id="clip6_46_187">
<rect width="95.5113" height="95.5113" fill="white" transform="translate(113.213 265.898) rotate(-44.5809)"/>
</clipPath>
<clipPath id="clip7_46_187">
<rect width="95.5113" height="95.5113" fill="white" transform="translate(50.568 202.33) rotate(-44.5809)"/>
</clipPath>
<clipPath id="clip8_46_187">
<rect width="95.5113" height="95.5113" fill="white" transform="translate(49.6447 328.543) rotate(-44.5809)"/>
</clipPath>
<clipPath id="clip9_46_187">
<rect width="95.5113" height="95.5113" fill="white" transform="translate(-12.9997 264.975) rotate(-44.5809)"/>
</clipPath>
</defs>
</svg>
